<svg width="24" height="24" viewBox="0 0 24 24" fill="none" xmlns="http://www.w3.org/2000/svg">
<rect width="24" height="24" rx="12" fill="#1A2327"/>
<rect width="0.621841" height="0.621841" rx="0.31092" transform="matrix(0.710211 0.703989 -0.710211 0.703989 17.1652 6.33276)" fill="#FFDC23"/>
<rect width="0.621841" height="0.621841" rx="0.31092" transform="matrix(0.710211 0.703989 -0.710211 0.703989 15.9283 6.33276)" fill="#FFDC23"/>
<rect width="0.621841" height="0.621841" rx="0.31092" transform="matrix(0.710211 0.703989 -0.710211 0.703989 16.5468 6.95117)" fill="#FFDC23"/>
<rect width="0.621841" height="0.621841" rx="0.31092" transform="matrix(0.710211 0.703989 -0.710211 0.703989 17.1652 7.56958)" fill="#FFDC23"/>
<rect width="0.621841" height="0.621841" rx="0.31092" transform="matrix(0.710211 0.703989 -0.710211 0.703989 15.3099 6.95117)" fill="#FFDC23"/>
<rect width="0.621841" height="0.621841" rx="0.31092" transform="matrix(0.710211 0.703989 -0.710211 0.703989 15.9283 7.56958)" fill="#FFDC23"/>
<rect width="0.621841" height="0.621841" rx="0.31092" transform="matrix(0.710211 0.703989 -0.710211 0.703989 16.5468 8.18805)" fill="#FFDC23"/>
<rect width="0.621841" height="0.621841" rx="0.31092" transform="matrix(0.710211 0.703989 -0.710211 0.703989 14.6915 7.56958)" fill="#FFDC23"/>
<rect width="0.621841" height="0.621841" rx="0.31092" transform="matrix(0.710211 0.703989 -0.710211 0.703989 15.3099 8.18805)" fill="#FFDC23"/>
<rect width="0.621841" height="0.621841" rx="0.31092" transform="matrix(0.710211 0.703989 -0.710211 0.703989 15.9283 8.80646)" fill="#FFDC23"/>
<rect width="0.621841" height="0.621841" rx="0.31092" transform="matrix(0.710211 0.703989 -0.710211 0.703989 14.0731 8.18805)" fill="#FFDC23"/>
<rect width="0.621841" height="0.621841" rx="0.31092" transform="matrix(0.710211 0.703989 -0.710211 0.703989 14.6915 8.80646)" fill="#FFDC23"/>
<rect width="0.621841" height="0.621841" rx="0.31092" transform="matrix(0.710211 0.703989 -0.710211 0.703989 15.3099 9.42487)" fill="#FFDC23"/>
<rect width="0.621841" height="0.621841" rx="0.31092" transform="matrix(0.710211 0.703989 -0.710211 0.703989 12.8363 8.18805)" fill="#FFDC23"/>
<rect width="0.621841" height="0.621841" rx="0.31092" transform="matrix(0.710211 0.703989 -0.710211 0.703989 13.4547 8.80646)" fill="#FFDC23"/>
<rect width="0.621841" height="0.621841" rx="0.31092" transform="matrix(0.710211 0.703989 -0.710211 0.703989 14.0731 9.42487)" fill="#FFDC23"/>
<rect width="0.621841" height="0.621841" rx="0.31092" transform="matrix(0.710211 0.703989 -0.710211 0.703989 14.6915 10.0433)" fill="#FFDC23"/>
<rect width="0.621841" height="0.621841" rx="0.31092" transform="matrix(0.710211 0.703989 -0.710211 0.703989 15.3099 10.6617)" fill="#FFDC23"/>
<rect width="0.621841" height="0.621841" rx="0.31092" transform="matrix(0.710211 0.703989 -0.710211 0.703989 11.5995 8.18805)" fill="#FFDC23"/>
<rect width="0.621841" height="0.621841" rx="0.31092" transform="matrix(0.710211 0.703989 -0.710211 0.703989 12.2179 8.80646)" fill="#FFDC23"/>
<rect width="0.621841" height="0.621841" rx="0.31092" transform="matrix(0.710211 0.703989 -0.710211 0.703989 12.8363 9.42487)" fill="#FFDC23"/>
<rect width="0.621841" height="0.621841" rx="0.31092" transform="matrix(0.710211 0.703989 -0.710211 0.703989 13.4547 10.0433)" fill="#FFDC23"/>
<rect width="0.621841" height="0.621841" rx="0.31092" transform="matrix(0.710211 0.703989 -0.710211 0.703989 14.0731 10.6617)" fill="#FFDC23"/>
<rect width="0.621841" height="0.621841" rx="0.31092" transform="matrix(0.710211 0.703989 -0.710211 0.703989 14.6915 11.2801)" fill="#FFDC23"/>
<rect width="0.621841" height="0.621841" rx="0.31092" transform="matrix(0.710211 0.703989 -0.710211 0.703989 15.3099 11.8985)" fill="#FFDC23"/>
<rect width="0.621841" height="0.621841" rx="0.31092" transform="matrix(0.710211 0.703989 -0.710211 0.703989 9.74426 7.56958)" fill="#FFDC23"/>
<rect width="0.621841" height="0.621841" rx="0.31092" transform="matrix(0.710211 0.703989 -0.710211 0.703989 10.3627 8.18805)" fill="#FFDC23"/>
<rect width="0.621841" height="0.621841" rx="0.31092" transform="matrix(0.710211 0.703989 -0.710211 0.703989 10.9811 8.80646)" fill="#FFDC23"/>
<rect width="0.621841" height="0.621841" rx="0.31092" transform="matrix(0.710211 0.703989 -0.710211 0.703989 11.5995 9.42487)" fill="#FFDC23"/>
<rect width="0.621841" height="0.621841" rx="0.31092" transform="matrix(0.710211 0.703989 -0.710211 0.703989 12.2179 10.0433)" fill="#FFDC23"/>
<rect width="0.621841" height="0.621841" rx="0.31092" transform="matrix(0.710211 0.703989 -0.710211 0.703989 12.8363 10.6617)" fill="#FFDC23"/>
<rect width="0.621841" height="0.621841" rx="0.31092" transform="matrix(0.710211 0.703989 -0.710211 0.703989 13.4547 11.2801)" fill="#FFDC23"/>
<rect width="0.621841" height="0.621841" rx="0.31092" transform="matrix(0.710211 0.703989 -0.710211 0.703989 14.0731 11.8985)" fill="#FFDC23"/>
<rect width="0.621841" height="0.621841" rx="0.31092" transform="matrix(0.710211 0.703989 -0.710211 0.703989 14.6915 12.5169)" fill="#FFDC23"/>
<rect width="0.621841" height="0.621841" rx="0.31092" transform="matrix(0.710211 0.703989 -0.710211 0.703989 15.3099 13.1353)" fill="#FFDC23"/>
<rect width="0.621841" height="0.621841" rx="0.31092" transform="matrix(0.710211 0.703989 -0.710211 0.703989 15.9283 13.7538)" fill="#FFDC23"/>
<rect width="0.621841" height="0.621841" rx="0.31092" transform="matrix(0.710211 0.703989 -0.710211 0.703989 8.50745 7.56958)" fill="#FFDC23"/>
<rect width="0.621841" height="0.621841" rx="0.31092" transform="matrix(0.710211 0.703989 -0.710211 0.703989 9.12585 8.18805)" fill="#FFDC23"/>
<rect width="0.621841" height="0.621841" rx="0.31092" transform="matrix(0.710211 0.703989 -0.710211 0.703989 9.74426 8.80646)" fill="#FFDC23"/>
<rect width="0.621841" height="0.621841" rx="0.31092" transform="matrix(0.710211 0.703989 -0.710211 0.703989 10.3627 9.42487)" fill="#FFDC23"/>
<rect width="0.621841" height="0.621841" rx="0.31092" transform="matrix(0.710211 0.703989 -0.710211 0.703989 11.5995 10.6617)" fill="#FFDC23"/>
<rect width="0.621841" height="0.621841" rx="0.31092" transform="matrix(0.710211 0.703989 -0.710211 0.703989 12.2179 11.2801)" fill="#FFDC23"/>
<rect width="0.621841" height="0.621841" rx="0.31092" transform="matrix(0.710211 0.703989 -0.710211 0.703989 12.8363 11.8985)" fill="#FFDC23"/>
<rect width="0.621841" height="0.621841" rx="0.31092" transform="matrix(0.710211 0.703989 -0.710211 0.703989 14.0731 13.1353)" fill="#FFDC23"/>
<rect width="0.621841" height="0.621841" rx="0.31092" transform="matrix(0.710211 0.703989 -0.710211 0.703989 14.6915 13.7538)" fill="#FFDC23"/>
<rect width="0.621841" height="0.621841" rx="0.31092" transform="matrix(0.710211 0.703989 -0.710211 0.703989 15.3099 14.3722)" fill="#FFDC23"/>
<rect width="0.621841" height="0.621841" rx="0.31092" transform="matrix(0.710211 0.703989 -0.710211 0.703989 15.9283 14.9906)" fill="#FFDC23"/>
<rect width="0.621841" height="0.621841" rx="0.31092" transform="matrix(0.710211 0.703989 -0.710211 0.703989 7.27051 7.56958)" fill="#FFDC23"/>
<rect width="0.621841" height="0.621841" rx="0.31092" transform="matrix(0.710211 0.703989 -0.710211 0.703989 7.88904 8.18805)" fill="#FFDC23"/>
<rect width="0.621841" height="0.621841" rx="0.31092" transform="matrix(0.710211 0.703989 -0.710211 0.703989 8.50745 8.80646)" fill="#FFDC23"/>
<rect width="0.621841" height="0.621841" rx="0.31092" transform="matrix(0.710211 0.703989 -0.710211 0.703989 9.12585 9.42487)" fill="#FFDC23"/>
<rect width="0.621841" height="0.621841" rx="0.31092" transform="matrix(0.710211 0.703989 -0.710211 0.703989 10.9811 11.2801)" fill="#FFDC23"/>
<rect width="0.621841" height="0.621841" rx="0.31092" transform="matrix(0.710211 0.703989 -0.710211 0.703989 11.5995 11.8985)" fill="#FFDC23"/>
<rect width="0.621841" height="0.621841" rx="0.31092" transform="matrix(0.710211 0.703989 -0.710211 0.703989 12.2179 12.5169)" fill="#FFDC23"/>
<rect width="0.621841" height="0.621841" rx="0.31092" transform="matrix(0.710211 0.703989 -0.710211 0.703989 14.0731 14.3722)" fill="#FFDC23"/>
<rect width="0.621841" height="0.621841" rx="0.31092" transform="matrix(0.710211 0.703989 -0.710211 0.703989 14.6915 14.9906)" fill="#FFDC23"/>
<rect width="0.621841" height="0.621841" rx="0.31092" transform="matrix(0.710211 0.703989 -0.710211 0.703989 15.3099 15.609)" fill="#FFDC23"/>
<rect width="0.621841" height="0.621841" rx="0.31092" transform="matrix(0.710211 0.703989 -0.710211 0.703989 15.9283 16.2274)" fill="#FFDC23"/>
<rect width="0.621841" height="0.621841" rx="0.31092" transform="matrix(0.710211 0.703989 -0.710211 0.703989 10.3627 11.8985)" fill="#FFDC23"/>
<rect width="0.621841" height="0.621841" rx="0.31092" transform="matrix(0.710211 0.703989 -0.710211 0.703989 10.9811 12.5169)" fill="#FFDC23"/>
<rect width="0.621841" height="0.621841" rx="0.31092" transform="matrix(0.710211 0.703989 -0.710211 0.703989 11.5995 13.1353)" fill="#FFDC23"/>
<rect width="0.621841" height="0.621841" rx="0.31092" transform="matrix(0.710211 0.703989 -0.710211 0.703989 9.74426 12.5169)" fill="#FFDC23"/>
<rect width="0.621841" height="0.621841" rx="0.31092" transform="matrix(0.710211 0.703989 -0.710211 0.703989 10.3627 13.1353)" fill="#FFDC23"/>
<rect width="0.621841" height="0.621841" rx="0.31092" transform="matrix(0.710211 0.703989 -0.710211 0.703989 10.9811 13.7538)" fill="#FFDC23"/>
<rect width="0.621841" height="0.621841" rx="0.31092" transform="matrix(0.710211 0.703989 -0.710211 0.703989 9.12585 13.1353)" fill="#FFDC23"/>
<rect width="0.621841" height="0.621841" rx="0.31092" transform="matrix(0.710211 0.703989 -0.710211 0.703989 9.74426 13.7538)" fill="#FFDC23"/>
<rect width="0.621841" height="0.621841" rx="0.31092" transform="matrix(0.710211 0.703989 -0.710211 0.703989 10.3627 14.3722)" fill="#FFDC23"/>
<rect width="0.621841" height="0.621841" rx="0.31092" transform="matrix(0.710211 0.703989 -0.710211 0.703989 8.50745 13.7538)" fill="#FFDC23"/>
<rect width="0.621841" height="0.621841" rx="0.31092" transform="matrix(0.710211 0.703989 -0.710211 0.703989 9.12585 14.3722)" fill="#FFDC23"/>
<rect width="0.621841" height="0.621841" rx="0.31092" transform="matrix(0.710211 0.703989 -0.710211 0.703989 9.74426 14.9906)" fill="#FFDC23"/>
<rect width="0.621841" height="0.621841" rx="0.31092" transform="matrix(0.710211 0.703989 -0.710211 0.703989 7.27051 13.7538)" fill="#FFDC23"/>
<rect width="0.621841" height="0.621841" rx="0.31092" transform="matrix(0.710211 0.703989 -0.710211 0.703989 7.88904 14.3722)" fill="#FFDC23"/>
<rect width="0.621841" height="0.621841" rx="0.31092" transform="matrix(0.710211 0.703989 -0.710211 0.703989 8.50745 14.9906)" fill="#FFDC23"/>
<rect width="0.621841" height="0.621841" rx="0.31092" transform="matrix(0.710211 0.703989 -0.710211 0.703989 9.12585 15.609)" fill="#FFDC23"/>
<rect width="0.621841" height="0.621841" rx="0.31092" transform="matrix(0.710211 0.703989 -0.710211 0.703989 9.74426 16.2274)" fill="#FFDC23"/>
<rect width="0.621841" height="0.621841" rx="0.31092" transform="matrix(0.710211 0.703989 -0.710211 0.703989 6.03369 13.7538)" fill="#FFDC23"/>
<rect width="0.621841" height="0.621841" rx="0.31092" transform="matrix(0.710211 0.703989 -0.710211 0.703989 6.6521 14.3722)" fill="#FFDC23"/>
<rect width="0.621841" height="0.621841" rx="0.31092" transform="matrix(0.710211 0.703989 -0.710211 0.703989 7.27051 14.9906)" fill="#FFDC23"/>
<rect width="0.621841" height="0.621841" rx="0.31092" transform="matrix(0.710211 0.703989 -0.710211 0.703989 8.50745 16.2274)" fill="#FFDC23"/>
<rect width="0.621841" height="0.621841" rx="0.31092" transform="matrix(0.710211 0.703989 -0.710211 0.703989 9.12585 16.8458)" fill="#FFDC23"/>
<rect width="0.621841" height="0.621841" rx="0.31092" transform="matrix(0.710211 0.703989 -0.710211 0.703989 9.74426 17.4642)" fill="#FFDC23"/>
<rect width="0.621841" height="0.621841" rx="0.31092" transform="matrix(0.710211 0.703989 -0.710211 0.703989 4.79688 13.7538)" fill="#FFDC23"/>
<rect width="0.621841" height="0.621841" rx="0.31092" transform="matrix(0.710211 0.703989 -0.710211 0.703989 5.41528 14.3722)" fill="#FFDC23"/>
<rect width="0.621841" height="0.621841" rx="0.31092" transform="matrix(0.710211 0.703989 -0.710211 0.703989 6.03369 14.9906)" fill="#FFDC23"/>
<rect width="0.621841" height="0.621841" rx="0.31092" transform="matrix(0.710211 0.703989 -0.710211 0.703989 8.50745 17.4642)" fill="#FFDC23"/>
<rect width="0.621841" height="0.621841" rx="0.31092" transform="matrix(0.710211 0.703989 -0.710211 0.703989 9.12585 18.0826)" fill="#FFDC23"/>
<rect width="0.621841" height="0.621841" rx="0.31092" transform="matrix(0.710211 0.703989 -0.710211 0.703989 9.74426 18.701)" fill="#FFDC23"/>
</svg>
