<svg width="24" height="24" viewBox="0 0 24 24" fill="none" xmlns="http://www.w3.org/2000/svg">
<path fill-rule="evenodd" clip-rule="evenodd" d="M12 2.00012C6.47715 2.00012 2 6.47727 2 12.0001C2 17.523 6.47715 22.0001 12 22.0001C17.5228 22.0001 22 17.523 22 12.0001C22 6.47727 17.5228 2.00012 12 2.00012ZM16.5303 9.78045C16.8232 9.48756 16.8232 9.01269 16.5303 8.71979C16.2374 8.4269 15.7626 8.4269 15.4697 8.71979L10.5 13.6895L8.53033 11.7198C8.23744 11.4269 7.76256 11.4269 7.46967 11.7198C7.17678 12.0127 7.17678 12.4876 7.46967 12.7805L9.96967 15.2805C10.2626 15.5733 10.7374 15.5733 11.0303 15.2805L16.5303 9.78045Z" fill="#192226"/>
</svg>
