<svg width="266" height="234" viewBox="0 0 266 234" fill="none" xmlns="http://www.w3.org/2000/svg">
<g style="mix-blend-mode:overlay">
<path d="M62.2798 50.4069C62.2798 50.4069 57.1968 57.707 57.0805 63.1207C56.9639 68.5449 61.7566 75.7778 61.7566 75.7778" stroke="white" stroke-width="2" stroke-linecap="round"/>
</g>
<g style="mix-blend-mode:overlay">
<path d="M79.7517 91.8703C79.7517 91.8703 76.1291 95.9806 72.7388 97.4509C70.0649 98.6106 65.3501 99.3591 65.3501 99.3591" stroke="white" stroke-width="2" stroke-linecap="round"/>
</g>
<g style="mix-blend-mode:overlay">
<path d="M110.867 54.1815C110.867 54.1815 108.314 59.0291 105.365 61.2563C103.039 63.0129 98.6332 64.8504 98.6332 64.8504" stroke="white" stroke-width="2" stroke-linecap="round"/>
</g>
<g style="mix-blend-mode:overlay">
<path d="M169.694 55.4543C169.892 55.4619 170.091 55.4658 170.291 55.4658C170.491 55.4658 170.69 55.4619 170.888 55.4543H228.229C228.554 55.4684 228.882 55.4756 229.211 55.4756C229.541 55.4756 229.868 55.4684 230.194 55.4543H230.536V55.4369C242.246 54.7514 251.531 45.0378 251.531 33.1554C251.531 20.8284 241.538 10.8353 229.211 10.8353C225.225 10.8353 221.482 11.8804 218.243 13.7117C214.691 6.09157 206.963 0.81015 198.002 0.81015C186.105 0.81015 176.383 10.1168 175.718 21.8466C174.02 21.2079 172.194 20.8604 170.291 20.8604C161.307 20.8604 154.024 28.6071 154.024 38.1631C154.024 47.3472 160.751 54.8602 169.25 55.4309V55.4543H169.694Z" fill="white"/>
</g>
<g style="mix-blend-mode:overlay">
<rect x="98.9395" y="12.2396" width="40.99" height="4.49011" rx="2.24506" fill="white"/>
</g>
<g style="mix-blend-mode:overlay">
<rect x="130.08" y="44.6839" width="24.3339" height="4.49011" rx="2.24506" fill="white"/>
</g>
<g style="mix-blend-mode:overlay">
<path d="M112.668 151.288H172.334L168.447 156.918H108.781L112.668 151.288Z" fill="white"/>
</g>
<g style="mix-blend-mode:overlay">
<path d="M96.8916 177.522H157.63L153.627 183.151H92.889L96.8916 177.522Z" fill="white"/>
</g>
<g style="mix-blend-mode:overlay">
<path d="M106.323 162.93H165.153L161.409 168.56H102.579L106.323 162.93Z" fill="white"/>
</g>
<g style="mix-blend-mode:overlay">
<path d="M90.0631 189.164H150.452L146.472 195.927H86.0835L90.0631 189.164Z" fill="white"/>
</g>
<g style="mix-blend-mode:overlay">
<path d="M82.3479 202.657H144.624L140.52 208.287H78.2439L82.3479 202.657Z" fill="white"/>
</g>
<path d="M22.9336 225.241V228.463" stroke="white" stroke-width="2"/>
<circle cx="22.8759" cy="219.974" r="5.21356" stroke="white"/>
<path d="M28.0895 219.974C28.0895 218.591 27.5402 217.265 26.5625 216.287C25.5847 215.309 24.2586 214.76 22.8759 214.76C21.4932 214.76 20.1671 215.309 19.1894 216.287C18.2116 217.265 17.6624 218.591 17.6624 219.974L22.8759 219.974H28.0895Z" stroke="#D9D9D9"/>
<path d="M241.998 225.284V228.506" stroke="white" stroke-width="2"/>
<circle cx="241.94" cy="220.016" r="5.21356" stroke="white"/>
<path d="M247.154 220.016C247.154 218.634 246.604 217.308 245.627 216.33C244.649 215.352 243.323 214.803 241.94 214.803C240.557 214.803 239.231 215.352 238.254 216.33C237.276 217.308 236.727 218.634 236.727 220.016L241.94 220.016H247.154Z" stroke="white"/>
<path d="M49.405 100.046C49.405 100.046 63.2807 95.5134 71.1459 90.6447C81.5182 84.2239 94.9437 69.421 88.3034 55.3893C84.8879 48.1721 74.9353 46.5622 68.3253 51.0412C61.6036 55.5959 61.2489 64.5528 65.2699 71.6067C71.5177 82.5673 92.695 78.5244 102.758 72.4294C110.032 68.0234 118.505 57.3871 118.505 57.3871" stroke="white" stroke-width="2" stroke-linecap="round"/>
<g style="mix-blend-mode:overlay">
<circle cx="58.2237" cy="113.482" r="3.22465" fill="white"/>
</g>
<g style="mix-blend-mode:overlay">
<circle cx="39.4615" cy="113.482" r="3.22465" fill="white"/>
</g>
<g style="mix-blend-mode:overlay">
<circle cx="26.5621" cy="98.6771" r="6.15682" fill="white"/>
</g>
<g style="mix-blend-mode:overlay">
<circle cx="40.306" cy="84.7588" r="3.97689" fill="white"/>
</g>
<path d="M71.3003 219.934L78.3248 208.074M177.305 142.458L192.796 142.488L149.777 222.7M177.305 142.458H117.188L108.708 156.775M177.305 142.458L169.309 156.775M133.404 221.064L140.659 208.074M108.708 156.775H169.309M108.708 156.775L101.282 169.313M169.309 156.775L162.307 169.313M101.282 169.313H162.307M101.282 169.313L92.841 183.565M162.307 169.313L154.347 183.565M92.841 183.565H154.347M92.841 183.565L85.3492 196.214M154.347 183.565L147.283 196.214M85.3492 196.214H147.283M85.3492 196.214L78.3248 208.074M147.283 196.214L140.659 208.074M78.3248 208.074H140.659" stroke="white" stroke-width="2"/>
<path d="M155.929 126.881L132.377 170.187V222.305H192.781L193.91 83.8317L179.482 83.5741L155.929 126.881ZM155.929 126.881V181.499" stroke="white" stroke-width="2"/>
<path d="M130.964 222.305H70.5601V170.187L94.1125 126.881M132.093 142.239V83.8317L117.665 83.5741L94.1125 126.881M94.1125 126.881V180.409" stroke="white" stroke-width="2"/>
<circle cx="71.6442" cy="222.044" r="6.44161" fill="white"/>
<circle cx="133.311" cy="222.044" r="6.51734" fill="white"/>
<circle cx="192.391" cy="222.044" r="6.3899" fill="white"/>
<g style="mix-blend-mode:overlay">
<rect x="0.339844" y="228.48" width="264.758" height="5.46514" fill="white"/>
</g>
</svg>
