<svg width="319" height="97" viewBox="0 0 319 97" fill="none" xmlns="http://www.w3.org/2000/svg">
<path opacity="0.6" fill-rule="evenodd" clip-rule="evenodd" d="M16 0C7.16344 0 0 7.16344 0 16V82C8.50071 82 15.4531 88.6293 15.9693 97H17.1707C17.5825 95.8348 18.6938 95 20 95C21.3062 95 22.4175 95.8348 22.8293 97H25.1707C25.5825 95.8348 26.6938 95 28 95C29.3062 95 30.4175 95.8348 30.8293 97H33.1707C33.5825 95.8348 34.6938 95 36 95C37.3062 95 38.4175 95.8348 38.8293 97H41.1707C41.5825 95.8348 42.6938 95 44 95C45.3062 95 46.4175 95.8348 46.8293 97H49.1707C49.5825 95.8348 50.6938 95 52 95C53.3062 95 54.4175 95.8348 54.8293 97H57.1707C57.5825 95.8348 58.6938 95 60 95C61.3062 95 62.4175 95.8348 62.8293 97H65.1707C65.5825 95.8348 66.6938 95 68 95C69.3062 95 70.4175 95.8348 70.8293 97H73.1707C73.5825 95.8348 74.6938 95 76 95C77.3062 95 78.4175 95.8348 78.8293 97H81.1707C81.5825 95.8348 82.6938 95 84 95C85.3062 95 86.4175 95.8348 86.8293 97H89.1707C89.5825 95.8348 90.6938 95 92 95C93.3062 95 94.4175 95.8348 94.8293 97H97.1707C97.5825 95.8348 98.6938 95 100 95C101.306 95 102.417 95.8348 102.829 97H105.171C105.583 95.8348 106.694 95 108 95C109.306 95 110.417 95.8348 110.829 97H113.171C113.583 95.8348 114.694 95 116 95C117.306 95 118.417 95.8348 118.829 97H121.171C121.583 95.8348 122.694 95 124 95C125.306 95 126.417 95.8348 126.829 97H129.171C129.583 95.8348 130.694 95 132 95C133.306 95 134.417 95.8348 134.829 97H137.171C137.583 95.8348 138.694 95 140 95C141.306 95 142.417 95.8348 142.829 97H145.171C145.583 95.8348 146.694 95 148 95C149.306 95 150.417 95.8348 150.829 97H153.171C153.583 95.8348 154.694 95 156 95C157.306 95 158.417 95.8348 158.829 97H161.171C161.583 95.8348 162.694 95 164 95C165.306 95 166.417 95.8348 166.829 97H169.171C169.583 95.8348 170.694 95 172 95C173.306 95 174.417 95.8348 174.829 97H177.171C177.583 95.8348 178.694 95 180 95C181.306 95 182.417 95.8348 182.829 97H185.171C185.583 95.8348 186.694 95 188 95C189.306 95 190.417 95.8348 190.829 97H193.171C193.583 95.8348 194.694 95 196 95C197.306 95 198.417 95.8348 198.829 97H201.171C201.583 95.8348 202.694 95 204 95C205.306 95 206.417 95.8348 206.829 97H209.171C209.583 95.8348 210.694 95 212 95C213.306 95 214.417 95.8348 214.829 97H217.171C217.583 95.8348 218.694 95 220 95C221.306 95 222.417 95.8348 222.829 97H225.171C225.583 95.8348 226.694 95 228 95C229.306 95 230.417 95.8348 230.829 97H233.171C233.583 95.8348 234.694 95 236 95C237.306 95 238.417 95.8348 238.829 97H241.171C241.583 95.8348 242.694 95 244 95C245.306 95 246.417 95.8348 246.829 97H249.171C249.583 95.8348 250.694 95 252 95C253.306 95 254.417 95.8348 254.829 97H257.171C257.583 95.8348 258.694 95 260 95C261.306 95 262.417 95.8348 262.829 97H265.171C265.583 95.8348 266.694 95 268 95C269.306 95 270.417 95.8348 270.829 97H273.171C273.583 95.8348 274.694 95 276 95C277.306 95 278.417 95.8348 278.829 97H281.171C281.583 95.8348 282.694 95 284 95C285.306 95 286.417 95.8348 286.829 97H289.171C289.583 95.8348 290.694 95 292 95C293.306 95 294.417 95.8348 294.829 97H297.171C297.583 95.8348 298.694 95 300 95C301.306 95 302.417 95.8348 302.829 97H303.031C303.547 88.6293 310.499 82 319 82V16C319 7.16344 311.837 0 303 0H16Z" fill="#16191D"/>
</svg>
