<svg xmlns="http://www.w3.org/2000/svg" width="319" height="226" viewBox="0 0 319 226" fill="none">
  <path opacity="0.7" fill-rule="evenodd" clip-rule="evenodd" d="M294.94 3.05176e-05H297.06C297.338 1.36969 298.548 2.40067 300 2.40067C301.452 2.40067 302.662 1.36969 302.94 3.05176e-05H303.041C303.632 7.1896 310.552 12.8631 319 12.8631V209.142C319 217.978 311.837 225.142 303 225.142H16C7.16344 225.142 0 217.978 0 209.142V12.8631C8.44845 12.8631 15.3675 7.1896 15.959 3.05176e-05H17.0599C17.3376 1.36969 18.5484 2.40067 20 2.40067C21.4516 2.40067 22.6624 1.36969 22.9401 3.05176e-05H25.0599C25.3376 1.36969 26.5484 2.40067 28 2.40067C29.4516 2.40067 30.6624 1.36969 30.9401 3.05176e-05H33.0599C33.3376 1.36969 34.5484 2.40067 36 2.40067C37.4516 2.40067 38.6624 1.36969 38.9401 3.05176e-05H41.0599C41.3376 1.36969 42.5484 2.40067 44 2.40067C45.4516 2.40067 46.6624 1.36969 46.9401 3.05176e-05H49.0599C49.3376 1.36969 50.5484 2.40067 52 2.40067C53.4516 2.40067 54.6624 1.36969 54.9401 3.05176e-05H57.0599C57.3376 1.36969 58.5484 2.40067 60 2.40067C61.4516 2.40067 62.6624 1.36969 62.9401 3.05176e-05H65.0599C65.3376 1.36969 66.5484 2.40067 68 2.40067C69.4516 2.40067 70.6624 1.36969 70.9401 3.05176e-05H73.0599C73.3376 1.36969 74.5484 2.40067 76 2.40067C77.4516 2.40067 78.6624 1.36969 78.9401 3.05176e-05H81.0599C81.3376 1.36969 82.5484 2.40067 84 2.40067C85.4516 2.40067 86.6624 1.36969 86.9401 3.05176e-05H89.0599C89.3376 1.36969 90.5484 2.40067 92 2.40067C93.4516 2.40067 94.6624 1.36969 94.9401 3.05176e-05H97.0599C97.3376 1.36969 98.5484 2.40067 100 2.40067C101.452 2.40067 102.662 1.36969 102.94 3.05176e-05H105.06C105.338 1.36969 106.548 2.40067 108 2.40067C109.452 2.40067 110.662 1.36969 110.94 3.05176e-05H113.06C113.338 1.36969 114.548 2.40067 116 2.40067C117.452 2.40067 118.662 1.36969 118.94 3.05176e-05H121.06C121.338 1.36969 122.548 2.40067 124 2.40067C125.452 2.40067 126.662 1.36969 126.94 3.05176e-05H129.06C129.338 1.36969 130.548 2.40067 132 2.40067C133.452 2.40067 134.662 1.36969 134.94 3.05176e-05H137.06C137.338 1.36969 138.548 2.40067 140 2.40067C141.452 2.40067 142.662 1.36969 142.94 3.05176e-05H145.06C145.338 1.36969 146.548 2.40067 148 2.40067C149.452 2.40067 150.662 1.36969 150.94 3.05176e-05H153.06C153.338 1.36969 154.548 2.40067 156 2.40067C157.452 2.40067 158.662 1.36969 158.94 3.05176e-05H161.06C161.338 1.36969 162.548 2.40067 164 2.40067C165.452 2.40067 166.662 1.36969 166.94 3.05176e-05H169.06C169.338 1.36969 170.548 2.40067 172 2.40067C173.452 2.40067 174.662 1.36969 174.94 3.05176e-05H177.06C177.338 1.36969 178.548 2.40067 180 2.40067C181.452 2.40067 182.662 1.36969 182.94 3.05176e-05H185.06C185.338 1.36969 186.548 2.40067 188 2.40067C189.452 2.40067 190.662 1.36969 190.94 3.05176e-05H193.06C193.338 1.36969 194.548 2.40067 196 2.40067C197.452 2.40067 198.662 1.36969 198.94 3.05176e-05H201.06C201.338 1.36969 202.548 2.40067 204 2.40067C205.452 2.40067 206.662 1.36969 206.94 3.05176e-05H209.06C209.338 1.36969 210.548 2.40067 212 2.40067C213.452 2.40067 214.662 1.36969 214.94 3.05176e-05H217.06C217.338 1.36969 218.548 2.40067 220 2.40067C221.452 2.40067 222.662 1.36969 222.94 3.05176e-05H225.06C225.338 1.36969 226.548 2.40067 228 2.40067C229.452 2.40067 230.662 1.36969 230.94 3.05176e-05H233.06C233.338 1.36969 234.548 2.40067 236 2.40067C237.452 2.40067 238.662 1.36969 238.94 3.05176e-05H241.06C241.338 1.36969 242.548 2.40067 244 2.40067C245.452 2.40067 246.662 1.36969 246.94 3.05176e-05H249.06C249.338 1.36969 250.548 2.40067 252 2.40067C253.452 2.40067 254.662 1.36969 254.94 3.05176e-05H257.06C257.338 1.36969 258.548 2.40067 260 2.40067C261.452 2.40067 262.662 1.36969 262.94 3.05176e-05H265.06C265.338 1.36969 266.548 2.40067 268 2.40067C269.452 2.40067 270.662 1.36969 270.94 3.05176e-05H273.06C273.338 1.36969 274.548 2.40067 276 2.40067C277.452 2.40067 278.662 1.36969 278.94 3.05176e-05H281.06C281.338 1.36969 282.548 2.40067 284 2.40067C285.452 2.40067 286.662 1.36969 286.94 3.05176e-05H289.06C289.338 1.36969 290.548 2.40067 292 2.40067C293.452 2.40067 294.662 1.36969 294.94 3.05176e-05Z" fill="#0B0C0E"/>
</svg>