<svg width="319" height="321" viewBox="0 0 319 321" fill="none" xmlns="http://www.w3.org/2000/svg">
<path opacity="0.7" fill-rule="evenodd" clip-rule="evenodd" d="M294.539 0.0127258H297.461C297.993 0.854347 298.931 1.41336 300 1.41336C301.069 1.41336 302.007 0.854347 302.539 0.0127258H303.016C303.398 10.4932 310.408 18.8457 319 18.8457V305C319 313.837 311.837 321 303 321H16C7.16344 321 0 313.837 0 305V18.8457C8.59211 18.8457 15.6024 10.4932 15.9837 0.0127258H17.4614C17.9928 0.854347 18.9311 1.41336 20 1.41336C21.0689 1.41336 22.0072 0.854347 22.5386 0.0127258H25.4614C25.9928 0.854347 26.9311 1.41336 28 1.41336C29.0689 1.41336 30.0072 0.854347 30.5386 0.0127258H33.4614C33.9928 0.854347 34.9311 1.41336 36 1.41336C37.0689 1.41336 38.0072 0.854347 38.5386 0.0127258H41.4614C41.9928 0.854347 42.9311 1.41336 44 1.41336C45.0689 1.41336 46.0072 0.854347 46.5386 0.0127258H49.4614C49.9928 0.854347 50.9311 1.41336 52 1.41336C53.0689 1.41336 54.0072 0.854347 54.5386 0.0127258H57.4614C57.9928 0.854347 58.9311 1.41336 60 1.41336C61.0689 1.41336 62.0072 0.854347 62.5386 0.0127258H65.4614C65.9928 0.854347 66.9311 1.41336 68 1.41336C69.0689 1.41336 70.0072 0.854347 70.5386 0.0127258H73.4614C73.9928 0.854347 74.9311 1.41336 76 1.41336C77.0689 1.41336 78.0072 0.854347 78.5386 0.0127258H81.4614C81.9928 0.854347 82.9311 1.41336 84 1.41336C85.0689 1.41336 86.0072 0.854347 86.5386 0.0127258H89.4614C89.9928 0.854347 90.9311 1.41336 92 1.41336C93.0689 1.41336 94.0072 0.854347 94.5386 0.0127258H97.4614C97.9928 0.854347 98.9311 1.41336 100 1.41336C101.069 1.41336 102.007 0.854347 102.539 0.0127258H105.461C105.993 0.854347 106.931 1.41336 108 1.41336C109.069 1.41336 110.007 0.854347 110.539 0.0127258H113.461C113.993 0.854347 114.931 1.41336 116 1.41336C117.069 1.41336 118.007 0.854347 118.539 0.0127258H121.461C121.993 0.854347 122.931 1.41336 124 1.41336C125.069 1.41336 126.007 0.854347 126.539 0.0127258H129.461C129.993 0.854347 130.931 1.41336 132 1.41336C133.069 1.41336 134.007 0.854347 134.539 0.0127258H137.461C137.993 0.854347 138.931 1.41336 140 1.41336C141.069 1.41336 142.007 0.854347 142.539 0.0127258H145.461C145.993 0.854347 146.931 1.41336 148 1.41336C149.069 1.41336 150.007 0.854347 150.539 0.0127258H153.461C153.993 0.854347 154.931 1.41336 156 1.41336C157.069 1.41336 158.007 0.854347 158.539 0.0127258H161.461C161.993 0.854347 162.931 1.41336 164 1.41336C165.069 1.41336 166.007 0.854347 166.539 0.0127258H169.461C169.993 0.854347 170.931 1.41336 172 1.41336C173.069 1.41336 174.007 0.854347 174.539 0.0127258H177.461C177.993 0.854347 178.931 1.41336 180 1.41336C181.069 1.41336 182.007 0.854347 182.539 0.0127258H185.461C185.993 0.854347 186.931 1.41336 188 1.41336C189.069 1.41336 190.007 0.854347 190.539 0.0127258H193.461C193.993 0.854347 194.931 1.41336 196 1.41336C197.069 1.41336 198.007 0.854347 198.539 0.0127258H201.461C201.993 0.854347 202.931 1.41336 204 1.41336C205.069 1.41336 206.007 0.854347 206.539 0.0127258H209.461C209.993 0.854347 210.931 1.41336 212 1.41336C213.069 1.41336 214.007 0.854347 214.539 0.0127258H217.461C217.993 0.854347 218.931 1.41336 220 1.41336C221.069 1.41336 222.007 0.854347 222.539 0.0127258H225.461C225.993 0.854347 226.931 1.41336 228 1.41336C229.069 1.41336 230.007 0.854347 230.539 0.0127258H233.461C233.993 0.854347 234.931 1.41336 236 1.41336C237.069 1.41336 238.007 0.854347 238.539 0.0127258H241.461C241.993 0.854347 242.931 1.41336 244 1.41336C245.069 1.41336 246.007 0.854347 246.539 0.0127258H249.461C249.993 0.854347 250.931 1.41336 252 1.41336C253.069 1.41336 254.007 0.854347 254.539 0.0127258H257.461C257.993 0.854347 258.931 1.41336 260 1.41336C261.069 1.41336 262.007 0.854347 262.539 0.0127258H265.461C265.993 0.854347 266.931 1.41336 268 1.41336C269.069 1.41336 270.007 0.854347 270.539 0.0127258H273.461C273.993 0.854347 274.931 1.41336 276 1.41336C277.069 1.41336 278.007 0.854347 278.539 0.0127258H281.461C281.993 0.854347 282.931 1.41336 284 1.41336C285.069 1.41336 286.007 0.854347 286.539 0.0127258H289.461C289.993 0.854347 290.931 1.41336 292 1.41336C293.069 1.41336 294.007 0.854347 294.539 0.0127258Z" fill="#0B0C0E"/>
</svg>
